<svg width="82" height="36" viewBox="0 0 82 36" fill="none" xmlns="http://www.w3.org/2000/svg">
<path fill-rule="evenodd" clip-rule="evenodd" d="M51 17H27V24.0275H0V30.274H27V36H51V30.274H78V24.0275H51V17Z" fill="#0B988D"/>
<path d="M16.3315 27V24.172L15.9675 23.472V18.264C15.9675 17.424 15.7061 16.78 15.1835 16.332C14.6795 15.8653 13.8675 15.632 12.7475 15.632C12.0195 15.632 11.2821 15.7533 10.5355 15.996C9.7888 16.22 9.15414 16.5373 8.63147 16.948L6.83947 13.336C7.69814 12.776 8.7248 12.3467 9.91947 12.048C11.1328 11.7307 12.3368 11.572 13.5315 11.572C15.9955 11.572 17.8995 12.1413 19.2435 13.28C20.6061 14.4 21.2875 16.164 21.2875 18.572V27H16.3315ZM11.8515 27.252C10.6381 27.252 9.61147 27.0467 8.77147 26.636C7.93147 26.2253 7.28747 25.6653 6.83947 24.956C6.41014 24.2467 6.19547 23.4533 6.19547 22.576C6.19547 21.6427 6.4288 20.84 6.89547 20.168C7.3808 19.4773 8.11814 18.9547 9.10747 18.6C10.0968 18.2267 11.3755 18.04 12.9435 18.04H16.5275V20.812H13.6715C12.8128 20.812 12.2061 20.952 11.8515 21.232C11.5155 21.512 11.3475 21.8853 11.3475 22.352C11.3475 22.8187 11.5248 23.192 11.8795 23.472C12.2341 23.752 12.7195 23.892 13.3355 23.892C13.9141 23.892 14.4368 23.752 14.9035 23.472C15.3888 23.1733 15.7435 22.7253 15.9675 22.128L16.6955 24.088C16.4155 25.1333 15.8648 25.9267 15.0435 26.468C14.2408 26.9907 13.1768 27.252 11.8515 27.252ZM24.6455 27V11.824H29.9655V27H24.6455ZM27.3055 10.144C26.3348 10.144 25.5508 9.87333 24.9535 9.332C24.3562 8.79067 24.0575 8.11867 24.0575 7.316C24.0575 6.51333 24.3562 5.84133 24.9535 5.3C25.5508 4.75867 26.3348 4.488 27.3055 4.488C28.2762 4.488 29.0602 4.74933 29.6575 5.272C30.2548 5.776 30.5535 6.42933 30.5535 7.232C30.5535 8.072 30.2548 8.772 29.6575 9.332C29.0788 9.87333 28.2948 10.144 27.3055 10.144ZM40.0308 27.252C38.6495 27.252 37.3895 26.9347 36.2508 26.3C35.1308 25.6467 34.2348 24.7413 33.5628 23.584C32.8908 22.408 32.5548 21.008 32.5548 19.384C32.5548 17.7787 32.8908 16.3973 33.5628 15.24C34.2348 14.064 35.1308 13.1587 36.2508 12.524C37.3895 11.8893 38.6495 11.572 40.0308 11.572C41.3375 11.572 42.4388 11.852 43.3348 12.412C44.2495 12.972 44.9402 13.8307 45.4068 14.988C45.8735 16.1453 46.1068 17.6107 46.1068 19.384C46.1068 21.1947 45.8828 22.6787 45.4348 23.836C44.9868 24.9933 44.3148 25.852 43.4188 26.412C42.5228 26.972 41.3935 27.252 40.0308 27.252ZM41.1508 23.024C41.7482 23.024 42.2802 22.884 42.7468 22.604C43.2322 22.324 43.6148 21.9133 43.8948 21.372C44.1748 20.812 44.3148 20.1493 44.3148 19.384C44.3148 18.6187 44.1748 17.9747 43.8948 17.452C43.6148 16.9107 43.2322 16.5 42.7468 16.22C42.2802 15.94 41.7482 15.8 41.1508 15.8C40.5348 15.8 39.9842 15.94 39.4988 16.22C39.0322 16.5 38.6588 16.9107 38.3788 17.452C38.0988 17.9747 37.9588 18.6187 37.9588 19.384C37.9588 20.1493 38.0988 20.812 38.3788 21.372C38.6588 21.9133 39.0322 22.324 39.4988 22.604C39.9842 22.884 40.5348 23.024 41.1508 23.024ZM44.4828 27V24.396L44.5108 19.384L44.2308 14.372V6.224H49.5508V27H44.4828ZM60.9256 27.252C59.1336 27.252 57.5656 26.916 56.2216 26.244C54.8963 25.5533 53.8603 24.62 53.1136 23.444C52.3856 22.2493 52.0216 20.896 52.0216 19.384C52.0216 17.872 52.3763 16.528 53.0856 15.352C53.8136 14.1573 54.8123 13.2333 56.0816 12.58C57.351 11.908 58.779 11.572 60.3656 11.572C61.859 11.572 63.2216 11.88 64.4536 12.496C65.6856 13.0933 66.6656 13.98 67.3936 15.156C68.1216 16.332 68.4856 17.76 68.4856 19.44C68.4856 19.6267 68.4763 19.8413 68.4576 20.084C68.439 20.3267 68.4203 20.5507 68.4016 20.756H56.3896V17.956H65.5736L63.5576 18.74C63.5763 18.0493 63.4456 17.452 63.1656 16.948C62.9043 16.444 62.531 16.052 62.0456 15.772C61.579 15.492 61.0283 15.352 60.3936 15.352C59.759 15.352 59.199 15.492 58.7136 15.772C58.247 16.052 57.883 16.4533 57.6216 16.976C57.3603 17.48 57.2296 18.0773 57.2296 18.768V19.58C57.2296 20.3267 57.379 20.9707 57.6776 21.512C57.995 22.0533 58.443 22.4733 59.0216 22.772C59.6003 23.052 60.291 23.192 61.0936 23.192C61.8403 23.192 62.475 23.0893 62.9976 22.884C63.539 22.66 64.071 22.324 64.5936 21.876L67.3936 24.788C66.6656 25.5907 65.7696 26.2067 64.7056 26.636C63.6416 27.0467 62.3816 27.252 60.9256 27.252ZM70.9385 27V11.824H76.0065V16.248L75.2505 14.988C75.6985 13.8493 76.4265 13 77.4345 12.44C78.4425 11.8613 79.6651 11.572 81.1025 11.572V16.36C80.8598 16.3227 80.6451 16.304 80.4585 16.304C80.2905 16.2853 80.1038 16.276 79.8985 16.276C78.8158 16.276 77.9385 16.5747 77.2665 17.172C76.5945 17.7507 76.2585 18.7027 76.2585 20.028V27H70.9385Z" fill="white"/>
<circle cx="39.5" cy="19" r="5" fill="white"/>
<path fill-rule="evenodd" clip-rule="evenodd" d="M40.5 13.018V12H39.5V13.018C37.954 13.1371 36.5016 13.805 35.4048 14.9011C34.308 15.9971 33.6392 17.4491 33.519 18.995H32.5V19.995H33.519C33.6387 21.5419 34.3072 22.9952 35.4038 24.0928C36.5005 25.1903 37.9532 25.86 39.5 25.981V27H40.5V25.981C42.0468 25.86 43.4995 25.1903 44.5962 24.0928C45.6928 22.9952 46.3613 21.5419 46.481 19.995H47.5V18.995H46.481C46.3608 17.4491 45.692 15.9971 44.5952 14.9011C43.4984 13.805 42.046 13.1371 40.5 13.018ZM40.5 15V18.995H44.5V19.995H40.5V24H39.5V19.995H35.5V18.995H39.5V15H40.5Z" fill="#FF0000"/>
</svg>
